<svg xmlns="http://www.w3.org/2000/svg" viewBox="0 0 1200 240" role="img" aria-label="Audience silhouettes">
  <defs>
    <linearGradient id="crowdFade" x1="0" y1="0" x2="0" y2="1">
      <stop offset="0%" stop-color="#020306" stop-opacity="0"/>
      <stop offset="55%" stop-color="#020306" stop-opacity="0.08"/>
      <stop offset="82%" stop-color="#010204" stop-opacity="0.45"/>
      <stop offset="100%" stop-color="#010204" stop-opacity="0.95"/>
    </linearGradient>
  </defs>

  <rect width="1200" height="240" fill="url(#crowdFade)"/>

  <!-- Rear row — softer audience mass behind -->
  <path id="crowd-rear-row" class="crowd-row crowd-rear crowd-silhouette"
    fill="#030508" opacity="0.55"
    d="M0 240 L0 188
       C 26 188 32 162 56 164 C 80 166 86 188 110 188
       C 134 188 140 158 164 160 C 188 162 194 188 218 188
       C 242 188 248 160 272 162 C 296 164 302 188 326 188
       C 350 188 356 156 380 158 C 404 160 410 188 434 188
       C 458 188 464 162 488 164 C 512 166 518 188 542 188
       C 566 188 572 154 596 156 C 620 158 626 188 650 188
       C 674 188 680 160 704 162 C 728 164 734 188 758 188
       C 782 188 788 158 812 160 C 836 162 842 188 866 188
       C 890 188 896 162 920 164 C 944 166 950 188 974 188
       C 998 188 1004 156 1028 158 C 1052 160 1058 188 1082 188
       C 1106 188 1112 162 1136 164 C 1160 166 1166 188 1190 188
       L 1200 188 L 1200 240 Z"/>

  <!-- Front row — darker head/shoulder silhouettes -->
  <path id="crowd-front-row" class="crowd-row crowd-front crowd-silhouette"
    fill="#060a10" opacity="0.88"
    d="M-40 240 L-40 200
       C -10 200 -4 168 20 170 C 44 172 50 200 74 200
       C 98 200 104 148 128 150 C 152 152 158 200 182 200
       C 206 200 212 172 236 174 C 260 176 266 200 290 200
       C 314 200 320 142 344 144 C 368 146 374 200 398 200
       C 422 200 428 168 452 170 C 476 172 482 200 506 200
       C 530 200 536 152 560 154 C 584 156 590 200 614 200
       C 638 200 644 146 668 148 C 692 150 698 200 722 200
       C 746 200 752 170 776 172 C 800 174 806 200 830 200
       C 854 200 860 150 884 152 C 908 154 914 200 938 200
       C 962 200 968 166 992 168 C 1016 170 1022 200 1046 200
       C 1070 200 1076 148 1100 150 C 1124 152 1130 200 1154 200
       C 1178 200 1184 168 1208 170 L 1240 200 L 1240 240 Z"/>

  <!-- Subtle raised arms — connected to crowd band -->
  <g id="crowd-hands" class="crowd-hands" fill="#050810" opacity="0.5">
    <path class="crowd-hand" d="M236 200 L250 162 L260 200 Z"/>
    <path class="crowd-hand" d="M536 200 L552 138 L564 200 Z"/>
    <path class="crowd-hand" d="M856 200 L870 158 L880 200 Z"/>
    <path class="crowd-hand" d="M1076 200 L1090 164 L1100 200 Z"/>
  </g>
</svg>
